# xmcd
# 
# Track frame offsets:
#     150
#     32516
#     60005
#     86254
#     115504
#     136855
#     160107
#     188155
#     209832
#     229983
# 
# Disc length: 3425
# 
# Revision: 1
# Processed by: cddbd v1.5.2PL0 Copyright (c) Steve Scherf et al.
# Submitted via: BonkEnc v1.0.8
# 
DISCID=750d5f0a
DTITLE=Keith Richards - Life 6v6 
DYEAR=2010
DGENRE=Hoerbuch
TTITLE0=Keith Richards Life 6v6 01
TTITLE1=Keith Richards Life 6v6 02
TTITLE2=Keith Richards Life 6v6 03
TTITLE3=Keith Richards Life 6v6 04
TTITLE4=Keith Richards Life 6v6 05
TTITLE5=Keith Richards Life 6v6 06
TTITLE6=Keith Richards Life 6v6 07
TTITLE7=Keith Richards Life 6v6 08
TTITLE8=Keith Richards Life 6v6 09
TTITLE9=Keith Richards Life 6v6 10
EXTD=YEAR: 2010
EXTT0=
EXTT1=
EXTT2=
EXTT3=
EXTT4=
EXTT5=
EXTT6=
EXTT7=
EXTT8=
EXTT9=
PLAYORDER=
